<svg width="950" height="950" viewBox="0 0 950 950" fill="none" xmlns="http://www.w3.org/2000/svg">
  <rect width="950" height="950" rx="220" fill="#111111"/>

  <g transform="translate(100, 100)">
      <path d="M103.841 462.695H91.8895V610.095H103.841V462.695Z" fill="white"/>
      <path d="M140.792 462.694H128.84V618.062H140.792V462.694Z" fill="white"/>
      <path d="M177.744 462.694H165.793V626.029H177.744V462.694Z" fill="white"/>
      <path d="M214.695 462.694H202.744V635.59H214.695V462.694Z" fill="white"/>
      <path d="M251.646 462.694H239.694V657.103H251.646V462.694Z" fill="white"/>
      <path d="M288.598 462.694H276.647V669.851H288.598V462.694Z" fill="white"/>
      <path d="M325.549 462.694H313.598V700.924H325.549V462.694Z" fill="white"/>
      <path d="M362.5 455.524H350.548V723.234H362.5V455.524Z" fill="white"/>
      <path d="M399.452 401.344H387.501V749.526H399.452V401.344Z" fill="white"/>
      <path d="M436.403 369.474H424.452V734.389H436.403V369.474Z" fill="white"/>
      <path d="M473.354 392.58H461.402V689.77H473.354V392.58Z" fill="white"/>
      <path d="M510.305 407.718H498.353V657.103H510.305V407.718Z" fill="white"/>
      <path d="M547.257 431.621H535.306V645.949H547.257V431.621Z" fill="white"/>
      <path d="M584.208 441.182H572.256V637.184H584.208V441.182Z" fill="white"/>
      <path d="M621.159 455.524H609.207V621.249H621.159V455.524Z" fill="white"/>
      <path d="M658.111 462.694H646.16V613.281H658.111V462.694Z" fill="white"/>

      <path d="M646.159 287.306H658.11V139.906H646.159V287.306Z" fill="#0A84FF"/>
      <path d="M609.208 287.307H621.16V131.939H609.208V287.307Z" fill="#0A84FF"/>
      <path d="M572.256 287.307H584.207V123.972H572.256V287.307Z" fill="#0A84FF"/>
      <path d="M535.305 287.307H547.256V114.411H535.305V287.307Z" fill="#0A84FF"/>
      <path d="M498.354 287.307H510.306V92.8976H498.354V287.307Z" fill="#0A84FF"/>
      <path d="M461.402 287.307H473.353V80.1497H461.402V287.307Z" fill="#0A84FF"/>
      <path d="M424.451 287.307H436.402L436.402 49.0767H424.451V287.307Z" fill="#0A84FF"/>
      <path d="M387.5 294.477H399.452L399.452 26.7665H387.5L387.5 294.477Z" fill="#0A84FF"/>
      <path d="M350.549 348.657H362.5L362.5 0.473694H350.549L350.549 348.657Z" fill="#0A84FF"/>
      <path d="M313.597 380.527H325.548L325.548 15.6116H313.597L313.597 380.527Z" fill="#0A84FF"/>
      <path d="M276.646 357.421H288.598L288.598 60.2307H276.646L276.646 357.421Z" fill="#0A84FF"/>
      <path d="M239.695 342.283H251.647L251.647 92.8977H239.695L239.695 342.283Z" fill="#0A84FF"/>
      <path d="M202.743 318.38H214.694L214.694 104.052H202.743L202.743 318.38Z" fill="#0A84FF"/>
      <path d="M165.792 308.819H177.744L177.744 112.817H165.792L165.792 308.819Z" fill="#0A84FF"/>
      <path d="M128.841 294.477H140.793L140.793 128.752H128.841L128.841 294.477Z" fill="#0A84FF"/>
      <path d="M91.889 287.307H103.84L103.84 136.72H91.889L91.889 287.307Z" fill="#0A84FF"/>
  </g>
</svg>